<svg width="32" height="32" viewBox="0 0 32 32" fill="none" xmlns="http://www.w3.org/2000/svg">
<path d="M14.6541 0.668017L0.668824 14.6418C-0.0830488 15.3931 -0.0830488 16.6065 0.668824 17.3577L14.6541 31.3315C15.406 32.0828 16.6204 32.0828 17.3723 31.3315L23.2361 25.4725C23.9095 24.7997 23.9095 23.7089 23.2361 23.0361C22.5627 22.3633 21.471 22.3633 20.7977 23.0361L16.3523 27.4777C16.1652 27.6647 15.8812 27.6647 15.694 27.4777L4.52577 16.3187C4.33863 16.1317 4.33863 15.8479 4.52577 15.6609L15.694 4.50183C15.8812 4.31485 16.1652 4.31485 16.3523 4.50183L20.7977 8.94351C21.471 9.61631 22.5627 9.61631 23.2361 8.94351C23.9095 8.2707 23.9095 7.17987 23.2361 6.50707L17.3729 0.648692C16.618 -0.0863052 15.4031 -0.0803549 14.6541 0.668017Z" fill="url(#paint0_linear)"/>
<path d="M14.6541 0.668017L0.668824 14.6418C-0.0830488 15.3931 -0.0830488 16.6065 0.668824 17.3577L14.6541 31.3315C15.406 32.0828 16.6204 32.0828 17.3723 31.3315L23.2361 25.4725C23.9095 24.7997 23.9095 23.7089 23.2361 23.0361C22.5627 22.3633 21.471 22.3633 20.7977 23.0361L16.3523 27.4777C16.1652 27.6647 15.8812 27.6647 15.694 27.4777L4.52577 16.3187C4.33863 16.1317 4.33863 15.8479 4.52577 15.6609L15.694 4.50183C16.16 4.10012 16.9203 3.28646 18.0368 3.09616C18.8665 2.95474 19.7737 3.26602 20.7582 4.03C20.1 3.37232 18.9715 2.24522 17.3729 0.648692C16.618 -0.0863052 15.4031 -0.0803549 14.6541 0.668017Z" fill="url(#paint1_linear)"/>
<path d="M24.5897 21.7363C25.263 22.4091 26.3548 22.4091 27.0281 21.7363L31.3536 17.4144C32.1055 16.6631 32.1055 15.4497 31.3537 14.6986L26.9905 10.3544C26.3156 9.68244 25.2235 9.68341 24.5497 10.3566C23.8764 11.0294 23.8764 12.1202 24.5497 12.793L27.4966 15.7375C27.6838 15.9245 27.6838 16.2083 27.4966 16.3953L24.5897 19.2998C23.9163 19.9726 23.9163 21.0635 24.5897 21.7363Z" fill="url(#paint2_linear)"/>
<path d="M16.0831 19.8427C18.1685 19.8427 19.8591 18.1535 19.8591 16.0698C19.8591 13.9861 18.1685 12.2969 16.0831 12.2969C13.9976 12.2969 12.307 13.9861 12.307 16.0698C12.307 18.1535 13.9976 19.8427 16.0831 19.8427Z" fill="url(#paint3_linear)"/>
<defs>
<linearGradient id="paint0_linear" x1="14.7836" y1="0.102052" x2="28.0737" y2="8.21811" gradientUnits="userSpaceOnUse">
<stop stop-color="#4285EB"/>
<stop offset="1" stop-color="#2EC7FF"/>
</linearGradient>
<linearGradient id="paint1_linear" x1="16.5661" y1="0.102051" x2="10.0021" y2="34.027" gradientUnits="userSpaceOnUse">
<stop stop-color="#29CDFF"/>
<stop offset="0.378601" stop-color="#148EFF"/>
<stop offset="1" stop-color="#0A60FF"/>
</linearGradient>
<linearGradient id="paint2_linear" x1="29.5313" y1="8.24358" x2="20.9904" y2="21.6008" gradientUnits="userSpaceOnUse">
<stop stop-color="#FA816E"/>
<stop offset="0.414726" stop-color="#F74A5C"/>
<stop offset="1" stop-color="#F51D2C"/>
</linearGradient>
<linearGradient id="paint3_linear" x1="17.4521" y1="9.60372" x2="14.6103" y2="20.9714" gradientUnits="userSpaceOnUse">
<stop stop-color="#FA8E7D"/>
<stop offset="0.512635" stop-color="#F74A5C"/>
<stop offset="1" stop-color="#F51D2C"/>
</linearGradient>
</defs>
</svg>
